<svg xmlns="http://www.w3.org/2000/svg"  width="376" height="79">
    <defs id="SvgjsDefs1032">
        <linearGradient id="SvgjsLinearGradient1035">
            <stop id="SvgjsStop1036" offset="0" stop-color="#2d388a"/>
            <stop id="SvgjsStop1037" offset="1" stop-color="#00aeef"/>
        </linearGradient>
        <linearGradient id="SvgjsLinearGradient1038">
            <stop id="SvgjsStop1039" offset="0" stop-color="#2d388a"/>
            <stop id="SvgjsStop1040" offset="1" stop-color="#00aeef"/>
        </linearGradient>
    </defs>
    <g xmlns:name="mainText_mainfill" id="main_text" fill="url(#SvgjsLinearGradient1035)" feature="main_text" groupname="main_text" name="main_text" rel="mainfill" transform="translate(90.51918484048737, -6.076717044842692) scale(3.069052401284791)">
        <path d="M12.44 17.7 l-3.82 0 c-0.28 0 -0.5 -0.2 -0.5 -0.48 s0.22 -0.5 0.5 -0.5 l4.32 0 l0.06 0 c0.24 0.02 0.44 0.24 0.44 0.5 l0 4.8 l0 0.08 c-0.02 0.14 -0.08 0.28 -0.18 0.36 c-1.24 0.98 -2.8 1.54 -4.52 1.54 c-4.02 -0.02 -7.28 -3.16 -7.28 -7.12 c0 -3.9 3.26 -7.08 7.28 -7.08 c1.74 0 3.28 0.6 4.54 1.58 c0.18 0.14 0.24 0.48 0.06 0.68 c-0.16 0.2 -0.46 0.24 -0.7 0.08 c-1.02 -0.84 -2.4 -1.36 -3.9 -1.36 c-3.5 0 -6.3 2.74 -6.3 6.1 c0 3.4 2.8 6.14 6.3 6.14 c1.36 0 2.66 -0.44 3.7 -1.2 l0 -4.12 z M17.68 19.1 c0 -2.66 2.08 -4.9 4.64 -4.9 l0 0 c2.58 0 4.64 2.24 4.64 4.9 l0 0 c0 2.66 -2.06 4.9 -4.64 4.9 l0 0 c-2.56 0 -4.64 -2.24 -4.64 -4.9 l0 0 z M18.64 19.1 c0 2.18 1.68 3.94 3.68 3.94 l0 0 c2 0 3.68 -1.76 3.68 -3.94 l0 0 c0 -2.18 -1.68 -3.96 -3.68 -3.96 l0 0 c-2 0 -3.68 1.78 -3.68 3.96 l0 0 z M33.96 24 l-2.58 0 l-0.08 0 c-0.24 -0.02 -0.44 -0.22 -0.44 -0.48 l0 -13.04 c0 -0.26 0.22 -0.48 0.48 -0.48 l0.06 0 l2.56 0 c3.86 0 7 3.16 7 7.02 s-3.14 6.98 -7 6.98 z M31.84 23.02 l2.12 0 c3.32 0 6.02 -2.68 6.02 -6 c0 -3.34 -2.7 -6.02 -6.02 -6.04 l-2.12 0 l0 12.04 z M45.040000000000006 23.52 l0 -8.84 c0 -0.28 0.22 -0.48 0.48 -0.48 l0 0 c0.28 0 0.5 0.2 0.5 0.48 l0 0 l0 8.84 c0 0.26 -0.22 0.48 -0.5 0.48 l0 0 c-0.26 0 -0.48 -0.22 -0.48 -0.48 l0 0 z M45.040000000000006 11.94 l0 -0.46 c0 -0.26 0.22 -0.48 0.48 -0.48 l0 0 c0.28 0 0.5 0.22 0.5 0.48 l0 0 l0 0.46 c0 0.28 -0.22 0.52 -0.5 0.52 l0 0 c-0.26 0 -0.48 -0.24 -0.48 -0.52 l0 0 z M57.64 23.52 l0 -5.32 c0 -1.66 -1.34 -3.02 -3.02 -3.02 c-1.66 0 -3 1.36 -3.04 3.02 l0 5.32 l0 0.08 c-0.02 0.08 -0.04 0.16 -0.1 0.22 c-0.08 0.12 -0.22 0.18 -0.36 0.18 l-0.12 0 c-0.14 -0.04 -0.26 -0.14 -0.32 -0.26 c-0.02 -0.02 -0.02 -0.04 -0.02 -0.06 s-0.02 -0.04 -0.02 -0.04 l0 -0.12 l0 -5.32 l0 -0.16 l0 -3.34 c0 -0.26 0.2 -0.48 0.48 -0.48 c0.26 0 0.46 0.22 0.46 0.48 l0 0.94 c0.72 -0.86 1.82 -1.42 3.04 -1.42 c2.2 0 3.98 1.8 3.98 3.98 l0 5.32 c0 0.28 -0.22 0.48 -0.48 0.48 s-0.48 -0.2 -0.48 -0.48 z M69.9 23.52 l0 -5.32 c0 -1.66 -1.34 -3.02 -3.02 -3.02 c-1.66 0 -3 1.36 -3.04 3.02 l0 5.32 l0 0.08 c-0.02 0.08 -0.04 0.16 -0.1 0.22 c-0.08 0.12 -0.22 0.18 -0.36 0.18 l-0.12 0 c-0.14 -0.04 -0.26 -0.14 -0.32 -0.26 c-0.02 -0.02 -0.02 -0.04 -0.02 -0.06 s-0.02 -0.04 -0.02 -0.04 l0 -0.12 l0 -5.32 l0 -0.16 l0 -3.34 c0 -0.26 0.2 -0.48 0.48 -0.48 c0.26 0 0.46 0.22 0.46 0.48 l0 0.94 c0.72 -0.86 1.82 -1.42 3.04 -1.42 c2.2 0 3.98 1.8 3.98 3.98 l0 5.32 c0 0.28 -0.22 0.48 -0.48 0.48 s-0.48 -0.2 -0.48 -0.48 z M79.22 24 c-2.64 0 -4.76 -2.2 -4.76 -4.88 c0 -2.72 2.12 -4.92 4.76 -4.92 c2.52 0 4.52 2 4.72 4.56 l0 0.02 l0 0.06 c0 0.26 -0.22 0.44 -0.48 0.44 l-8.04 0 c0.1 2.14 1.78 3.76 3.8 3.76 c1.3 0 2.5 -0.68 3.16 -1.78 c0.14 -0.24 0.44 -0.28 0.64 -0.16 c0.22 0.16 0.3 0.44 0.16 0.68 c-0.84 1.34 -2.3 2.22 -3.96 2.22 z M79.22 15.16 c-1.84 0 -3.38 1.32 -3.74 3.18 l7.42 0 c-0.32 -1.84 -1.88 -3.18 -3.68 -3.18 z M87.33999999999999 23.52 l0 -8.82 c0 -0.28 0.22 -0.48 0.5 -0.48 c0.24 0 0.46 0.2 0.46 0.48 l0 2.16 c0.04 -0.08 0.08 -0.16 0.14 -0.24 c0.74 -1.16 2.04 -2.4 3.92 -2.4 c0.26 0 0.48 0.2 0.48 0.48 c0 0.26 -0.22 0.48 -0.48 0.48 c-1.28 0 -2.16 0.72 -2.84 1.6 c-0.66 0.88 -1.04 1.88 -1.18 2.28 c-0.04 0.08 -0.04 0.12 -0.04 0.16 l0 4.3 c0 0.28 -0.22 0.48 -0.46 0.48 c-0.28 0 -0.5 -0.2 -0.5 -0.48 z"/>
    </g>
    <g xmlns:name="symbol_mainfill" id="SvgjsG1034" fill="url(#SvgjsLinearGradient1038)" feature="symbol" name="symbol" rel="mainfill" transform="translate(3.6328125, 3.7361111111111107) scale(0.8263888888888888)">
        <path d="M11.125,90c0.553,0,1-0.448,1-1V71.362h17.116c6.304,7.671,15.86,12.573,26.54,12.573c18.938,0,34.344-15.406,34.344-34.343  S74.719,15.249,55.781,15.249c-10.699,0-20.268,4.92-26.572,12.613H12.125V11c0-0.552-0.447-1-1-1s-1,0.448-1,1v78  C10.125,89.553,10.572,90,11.125,90z M55.781,17.249c17.834,0,32.344,14.509,32.344,32.343s-14.51,32.343-32.344,32.343  S23.438,67.426,23.438,49.592S37.947,17.249,55.781,17.249z M27.697,29.862c-3.937,5.587-6.259,12.391-6.259,19.73  c0,7.357,2.333,14.175,6.287,19.77H12.125v-39.5H27.697z"/>
        <path d="M38.136,53.05c-1.168,1.574-0.964,3.329-0.951,3.424c0.065,0.498,0.489,0.87,0.991,0.87c0.369,0,0.638,0.046,0.876,0.117  v3.068c-0.378,0.187-0.725,0.448-1.013,0.781c-0.682,0.79-0.981,1.855-0.822,2.923l0.303,2.026c0.387,2.587,2.411,4.465,4.813,4.465  H69.23c2.402,0,4.427-1.878,4.813-4.465l0.303-2.026c0.159-1.067-0.141-2.132-0.822-2.922c-0.259-0.3-0.57-0.533-0.904-0.715v-3.161  c0.214-0.053,0.452-0.091,0.768-0.091c0.549,0,0.995-0.442,1-0.99c0.001-0.084-0.016-1.666-1.056-3.247  c1.232-0.595,2.097-1.928,2.097-3.481v-0.878c0-1.86-1.237-3.408-2.866-3.742v-3.133c0.947-0.533,1.596-1.536,1.596-2.697v-1.721  c0-5.851-4.76-10.611-10.611-10.611H47.771c-5.851,0-10.61,4.76-10.61,10.611v1.721c0,1.258,0.755,2.338,1.833,2.826v3.005  c-1.626,0.338-2.859,1.885-2.859,3.742v0.878C36.135,51.136,36.957,52.433,38.136,53.05z M40.994,44.912v-2.631h29.568v2.631h-12.8  c-1.921,0-3.796,0.862-5.144,2.365l-1.585,1.768l-1.586-1.768c-1.348-1.503-3.223-2.365-5.144-2.365H40.994z M71.02,53.44  c0.721,0.668,1.067,1.439,1.227,2.019c-0.688,0.15-1.157,0.42-1.561,0.652c-0.505,0.291-0.869,0.5-1.703,0.5s-1.198-0.21-1.703-0.5  c-0.594-0.342-1.333-0.767-2.701-0.767c-1.367,0-2.106,0.425-2.699,0.767c-0.504,0.291-0.868,0.5-1.701,0.5s-1.197-0.21-1.702-0.5  c-0.594-0.342-1.332-0.767-2.7-0.767s-2.106,0.425-2.7,0.768c-0.504,0.29-0.868,0.5-1.701,0.5s-1.197-0.21-1.701-0.5  c-0.593-0.342-1.331-0.767-2.698-0.767s-2.106,0.425-2.699,0.767c-0.504,0.291-0.868,0.5-1.701,0.5c-0.832,0-1.196-0.21-1.7-0.5  c-0.422-0.243-0.917-0.529-1.66-0.673c0.115-0.586,0.447-1.386,1.369-1.966c0.014-0.009,0.02-0.023,0.033-0.032H71.02z   M67.473,60.236c-2.025,0-4.002,0.909-5.422,2.494l-1.471,1.639l-1.47-1.639c-1.421-1.585-3.397-2.494-5.423-2.494H41.052V58.39  c0.409,0.129,0.898,0.22,1.523,0.22c1.367,0,2.106-0.425,2.699-0.767c0.504-0.291,0.868-0.5,1.701-0.5c0.832,0,1.196,0.21,1.7,0.5  c0.593,0.342,1.331,0.768,2.699,0.768c1.367,0,2.105-0.425,2.699-0.767c0.505-0.291,0.869-0.5,1.702-0.5s1.197,0.21,1.702,0.5  c0.594,0.342,1.332,0.767,2.7,0.767c1.367,0,2.106-0.425,2.699-0.767c0.504-0.291,0.868-0.5,1.701-0.5c0.834,0,1.198,0.21,1.703,0.5  c0.594,0.342,1.333,0.767,2.701,0.767c0.682,0,1.207-0.106,1.637-0.254v1.88H67.473z M72.368,63.937l-0.303,2.026  c-0.238,1.6-1.431,2.761-2.835,2.761H42.333c-1.404,0-2.597-1.161-2.835-2.761l-0.303-2.025c-0.072-0.483,0.062-0.978,0.358-1.322  c0.108-0.125,0.323-0.312,0.626-0.379h13.507c1.479,0,2.876,0.649,3.935,1.829l2.214,2.469c0.189,0.211,0.46,0.333,0.744,0.333  s0.555-0.121,0.744-0.333l2.216-2.469c1.057-1.179,2.453-1.829,3.933-1.829h3.911c0.304,0.067,0.519,0.254,0.626,0.379  C72.307,62.96,72.44,63.454,72.368,63.937z M73.429,48.748v0.878c0,1-0.684,1.814-1.523,1.814H51.462  c0.118-0.056,0.227-0.131,0.316-0.23l2.329-2.598c0.983-1.096,2.281-1.7,3.655-1.7h13.8c0.042,0,0.078-0.019,0.118-0.024  c0.074,0.018,0.145,0.045,0.225,0.045C72.745,46.933,73.429,47.747,73.429,48.748z M39.161,37.453c0-4.748,3.862-8.611,8.61-8.611  h15.775c4.748,0,8.611,3.863,8.611,8.611v1.721c0,0.61-0.496,1.106-1.106,1.106H40.268c-0.61,0-1.106-0.497-1.106-1.106V37.453z   M38.135,48.748c0-1,0.684-1.814,1.523-1.814h0.411c0.038,0,0.07-0.017,0.106-0.021h4.129c1.374,0,2.672,0.604,3.655,1.7l2.33,2.598  c0.089,0.099,0.198,0.174,0.316,0.23H39.658c-0.84,0-1.523-0.814-1.523-1.814V48.748z"/>
    </g>
</svg>
