<svg id="Camada_1" data-name="Camada 1" xmlns="http://www.w3.org/2000/svg" viewBox="0 0 270 132"><defs><style>.cls-1{fill:#d23f3f;}</style></defs><title>Logo-RPrancheta 1</title><g id="main_text" data-name="main text"><path class="cls-1" d="M0,131.27l.34-2.76H4.89L9.43,96H4.94l.41-2.76H23.57c9.77,0,14.42,3,14.42,8.79,0,4.25-2.53,8.56-11.32,10v.23c6,1.21,6.95,4.77,7.18,9,.18,3.79-.28,5.92,1.38,5.92,1,0,1.79-.92,2.82-5.06l3.05.74c-1.84,7-4.2,8.86-8.91,8.86-8,0-8.68-4.43-9-9.6-.23-3.57.52-8.28-3.33-8.28h-2.3l-2.07,14.6h4.66l-.35,2.76ZM23.34,96.21H20l-2,14.48h3.28c4.08,0,5.69-4.71,5.69-9.08S25.46,96.21,23.34,96.21Zm18.73,24.6c0-6.9,3.91-16.61,16.1-16.61,4.37,0,10.11,1.26,10.11,6.26,0,2.88-1.89,4.54-4.19,5.75a41.58,41.58,0,0,1-7.47,2.59,14,14,0,0,0-4.26,2.12v1.27c0,2.93.52,6.66,4.31,6.66,3.62,0,5.92-3.33,7.19-5.69l3,1c-2,3.34-4.36,7.93-12.7,7.93C46.38,132.07,42.07,128.05,42.07,120.81Zm15.64-14.08c-3.22,0-4.26,5.74-5,10.8a12.2,12.2,0,0,1,1.78-1l.75-.35a7.17,7.17,0,0,0,4-6.89C59.26,107.76,59,106.73,57.71,106.73ZM80.3,122.82c0,3.16.4,4.37,1.61,4.37,1.72,0,3.44-3.28,4.88-6.9C88.11,117,89,113.8,89,111.78c0-2.18-1-3.67-2.3-3.67C84,108.11,80.3,115,80.3,122.82Zm-10.46-1.49c0-8.57,5.4-17.13,14.65-17.13,3.62,0,6.15,1.55,7.07,4a15.07,15.07,0,0,0,3.8-4h4.36c-1.09,5.46-3.5,17.59-3.5,21.55,0,1,.23,1.61,1,1.61,1.5,0,2.65-3,3.57-6.21l3,.75c-1.43,4.66-3.1,9.89-9.77,9.89-4.77,0-6-3.11-6-5.58a9.57,9.57,0,0,1,.23-2.07H88c-1.78,3.57-3.68,7.93-9.49,7.93S69.84,127.53,69.84,121.33Zm35.46,4.31c0-4.83,4.54-26.44,4.54-32.88H105.7l.4-2.76h14.32c0,7.47-5.18,33.39-5.18,35.75,0,1,.23,1.61,1,1.61,1.49,0,2.64-3,3.56-6.21l3,.75c-1.44,4.66-3.1,9.89-9.77,9.89-4.37,0-7.76-1.79-7.76-6.15Zm23.79,5.63.41-2.76H134l4.54-32.3H134.1c-2.07,0-3-.29-6.73,9.37h-2.82s1.21-5.92,1.56-8.34l.57-4h35.64l-2.53,12.3h-2.65l-.51-4.77c-.35-3.86-.75-4.6-2.36-4.6H149.1l-4.54,32.3h4.54l-.35,2.76Zm41.62-8.45c0,3.16.4,4.37,1.61,4.37,1.72,0,3.45-3.28,4.88-6.9,1.33-3.28,2.25-6.49,2.25-8.51,0-2.18-1-3.67-2.3-3.67C174.39,108.11,170.71,115,170.71,122.82Zm-10.46-1.49c0-8.57,5.4-17.13,14.65-17.13,3.63,0,6.15,1.55,7.07,4a14.91,14.91,0,0,0,3.8-4h4.37c-1.1,5.46-3.51,17.59-3.51,21.55,0,1,.23,1.61,1,1.61,1.5,0,2.65-3,3.57-6.21l3,.75c-1.44,4.66-3.11,9.89-9.77,9.89-4.77,0-6-3.11-6-5.58a10.24,10.24,0,0,1,.23-2.07h-.23c-1.78,3.57-3.68,7.93-9.48,7.93s-8.68-4.54-8.68-10.74Zm33.79,5c0-2,1.44-3.91,6-3.91.06,2.13-.75,7,4.72,7,2.87,0,4-1.32,4-3.28,0-6.26-12.65-3.39-12.65-13.22,0-6.84,6.84-8.79,12.82-8.79,7.13,0,10.52,2.81,10.52,5.51,0,2.13-2.07,4.49-7.13,3.45a13.07,13.07,0,0,0,.75-3.33c0-1.49-1-3-3.85-3-2.59,0-3.79,1.21-3.79,3,0,6.15,12.76,3.22,12.76,13.1,0,7.36-7.19,9.14-13.34,9.14-7.36,0-10.81-2.58-10.81-5.69Zm29.72-1c0-1.73.63-6.27,2.47-17.65h-4.42l.4-2.76c5.57-.23,8.22-3.33,10.8-9.37h5.18s-1,6.33-1.44,9.37h6.44l-.4,2.76h-6.38c-1.61,10.29-2.71,17-2.71,18.22,0,.92.35,1.38,1.27,1.38,1.44,0,2.18-1.72,3.68-6.21l3,.75c-1.27,3.56-2.36,9.89-10.06,9.89C227,131.79,223.76,130.41,223.76,125.41Zm19.83-4.6c0-6.9,3.91-16.61,16.09-16.61,4.37,0,10.12,1.26,10.12,6.26,0,2.88-1.9,4.54-4.2,5.75a41.06,41.06,0,0,1-7.47,2.59,13.9,13.9,0,0,0-4.25,2.12v1.27c0,2.93.52,6.66,4.31,6.66,3.62,0,5.92-3.33,7.18-5.69l3.05,1c-2,3.34-4.37,7.93-12.7,7.93-7.82,0-12.13-4-12.13-11.26Zm15.63-14.08c-3.21,0-4.25,5.74-5,10.8a12.35,12.35,0,0,1,1.79-1l.74-.35a7.16,7.16,0,0,0,4-6.89c0-1.5-.23-2.53-1.56-2.53Z"/></g><g id="SvgjsG2928"><path class="cls-1" d="M158.82,38.51l.09-.12a4.48,4.48,0,0,1,7.22,0,1.09,1.09,0,0,0,2-.7l-1-19a1.09,1.09,0,0,0-1.08-1H104.74a1.06,1.06,0,0,0-1.07,1l-1,19a1.07,1.07,0,0,0,.72,1.08,1.08,1.08,0,0,0,1.23-.38,4.48,4.48,0,0,1,7.22,0l.1.12a6.64,6.64,0,0,0,10.7,0l.1-.12a4.41,4.41,0,0,1,3.61-1.83A4.47,4.47,0,0,1,130,38.39l.06.12a6.48,6.48,0,0,0,4.25,2.63V75.45h-6a1.07,1.07,0,1,0,0,2.13h14.3a1.07,1.07,0,1,0,0-2.13h-6.06V41.14a6.81,6.81,0,0,0,4.25-2.63l.08-.12a4.43,4.43,0,0,1,3.6-1.83A4.38,4.38,0,0,1,148,38.39l.1.12a6.65,6.65,0,0,0,10.71,0Zm35.89,37.91L192.1,45l1.56-41.89a1.09,1.09,0,0,0-1-1.13,1.13,1.13,0,0,0-1.14,1.08L190,44H158.23a1.06,1.06,0,0,0-1.08,1l-2.62,31.45a1.06,1.06,0,0,0,1,1.15,1.09,1.09,0,0,0,1.17-1l1.48-17.93H191l1.49,17.93a1.09,1.09,0,0,0,1.08,1h.1A1.09,1.09,0,0,0,194.71,76.42ZM158.36,56.54l.87-10.39H190l.86,10.39ZM113.56,45a1.07,1.07,0,0,0-1.08-1H80.76L79.23,3.08A1.12,1.12,0,0,0,78.1,2a1.08,1.08,0,0,0-1,1.12L78.63,45,76,76.42a1.09,1.09,0,0,0,2.18.18l1.49-17.93h32.85L114,76.6a1.09,1.09,0,0,0,1.08,1h.1a1.07,1.07,0,0,0,1-1.15ZM79.84,56.54l.87-10.39h30.77l.87,10.39Z"/></g></svg>