<svg id="Camada_1" data-name="Camada 1" xmlns="http://www.w3.org/2000/svg" xmlns:xlink="http://www.w3.org/1999/xlink" viewBox="0 0 91.39 37.26"><defs><style>.cls-1{fill:none;}.cls-2{font-size:21px;fill:#d3222a;font-family:Merienda-Bold, Merienda;font-weight:700;letter-spacing:-0.05em;}.cls-3{opacity:0.25;}.cls-4{isolation:isolate;}.cls-5{clip-path:url(#clip-path);}.cls-6{fill:#98181e;}.cls-7{fill:#9c191f;}.cls-8{fill:#a01a20;}.cls-9{fill:#a11a20;}.cls-10{clip-path:url(#clip-path-2);}.cls-11{fill:#7f1419;}.cls-12{fill:#7a1418;}.cls-13{fill:#761318;}.cls-14{fill:#721217;}.cls-15{fill:#6e1216;}.cls-16{clip-path:url(#clip-path-3);}.cls-17{fill:#8b161c;}.cls-18{fill:#87161b;}.cls-19{fill:#83151a;}.cls-20{fill:#8f171d;}.cls-21{fill:#94181d;}.cls-22{clip-path:url(#clip-path-4);}.cls-23{clip-path:url(#clip-path-5);}.cls-24{fill:#a71b21;}</style><clipPath id="clip-path" transform="translate(-136.85 -272.89)"><path class="cls-1" d="M183.52,295.39,187.3,292a39.78,39.78,0,0,0,4.38,8.58,32.61,32.61,0,0,0,4.55,5.78l-3.78,3.44a32.29,32.29,0,0,1-4.54-5.78A40.29,40.29,0,0,1,183.52,295.39Z"/></clipPath><clipPath id="clip-path-2" transform="translate(-136.85 -272.89)"><path class="cls-1" d="M185.92,287.5l-3.77,3.44a9.32,9.32,0,0,1-6,2.22l3.77-3.44A9.32,9.32,0,0,0,185.92,287.5Z"/></clipPath><clipPath id="clip-path-3" transform="translate(-136.85 -272.89)"><path class="cls-1" d="M175.8,281.84l3.78-3.44c0,1-.23,4.21-.76,9.67a103.57,103.57,0,0,0-.6,13.7,22.79,22.79,0,0,0,.38,3.81L174.82,309a23.91,23.91,0,0,1-.38-3.81,105.35,105.35,0,0,1,.61-13.69C175.58,286.05,175.84,282.82,175.8,281.84Z"/></clipPath><clipPath id="clip-path-4" transform="translate(-136.85 -272.89)"><path class="cls-1" d="M169.85,276.33l3.78-3.44q4,.27,5.35,3l-3.78,3.44Q173.81,276.6,169.85,276.33Z"/></clipPath><clipPath id="clip-path-5" transform="translate(-136.85 -272.89)"><path class="cls-1" d="M190.51,288.17l-3.77,3.44a9.91,9.91,0,0,0,3.17-7.18,6.38,6.38,0,0,0-2.46-4.71,8.58,8.58,0,0,0-5.79-2h-.14a12.6,12.6,0,0,0-6.32,1.61l3.78-3.44a12.57,12.57,0,0,1,6.32-1.61h.13a8.62,8.62,0,0,1,5.8,2,6.4,6.4,0,0,1,2.46,4.71,9.18,9.18,0,0,1-1.64,5.36A9.47,9.47,0,0,1,190.51,288.17Z"/></clipPath></defs><title>Logo</title><text class="cls-2" transform="translate(0 28.94)">RealTaste</text><g class="cls-3"><g class="cls-4"><g class="cls-4"><g class="cls-5"><g class="cls-4"><path class="cls-6" d="M183.52,295.39,187.3,292c.2.55.41,1.11.64,1.66l-3.77,3.44c-.23-.55-.45-1.1-.65-1.66" transform="translate(-136.85 -272.89)"/><path class="cls-7" d="M184.17,297.05l3.77-3.44a42.14,42.14,0,0,0,3.42,6.43l-3.77,3.44a40.44,40.44,0,0,1-3.42-6.43" transform="translate(-136.85 -272.89)"/><path class="cls-8" d="M187.59,303.48l3.77-3.44.32.49a32.61,32.61,0,0,0,4.55,5.78l-3.78,3.44a32.29,32.29,0,0,1-4.54-5.78l-.32-.49" transform="translate(-136.85 -272.89)"/></g></g></g><polygon class="cls-9" points="46.11 20.99 49.88 17.55 50.44 19.06 46.67 22.5 46.11 20.99"/><g class="cls-4"><g class="cls-10"><g class="cls-4"><path class="cls-11" d="M176.11,293.16l3.77-3.44.6,0-3.77,3.44-.6,0" transform="translate(-136.85 -272.89)"/><path class="cls-12" d="M176.71,293.12l3.77-3.44c.39,0,.77-.09,1.14-.16L177.85,293c-.37.07-.75.12-1.14.16" transform="translate(-136.85 -272.89)"/><path class="cls-13" d="M177.85,293l3.77-3.44c.37-.07.73-.15,1.07-.25l-3.77,3.44c-.34.1-.7.18-1.07.25" transform="translate(-136.85 -272.89)"/><path class="cls-14" d="M178.92,292.71l3.77-3.44a11.11,11.11,0,0,0,1.11-.4L180,292.31a9.72,9.72,0,0,1-1.11.4" transform="translate(-136.85 -272.89)"/><path class="cls-15" d="M180,292.31l3.77-3.44a7.8,7.8,0,0,0,2.12-1.37l-3.77,3.44a8,8,0,0,1-2.12,1.37" transform="translate(-136.85 -272.89)"/></g></g></g><g class="cls-4"><g class="cls-16"><g class="cls-4"><path class="cls-17" d="M175.8,281.84l3.78-3.44v.13L175.81,282c0-.05,0-.09,0-.13" transform="translate(-136.85 -272.89)"/><path class="cls-18" d="M175.81,282l3.77-3.44c0,.41,0,1.09-.1,2.07L175.71,284c.07-1,.1-1.66.1-2.07" transform="translate(-136.85 -272.89)"/><path class="cls-19" d="M175.71,284l3.77-3.44q-.16,2.49-.66,7.47c-.15,1.59-.28,3.09-.38,4.52L174.67,296c.1-1.43.22-2.93.38-4.51.32-3.32.54-5.82.66-7.48" transform="translate(-136.85 -272.89)"/><path class="cls-18" d="M174.67,296l3.77-3.44c-.2,2.87-.29,5.43-.26,7.7l-3.77,3.44q0-3.39.26-7.7" transform="translate(-136.85 -272.89)"/><path class="cls-17" d="M174.41,303.73l3.77-3.44c0,.51,0,1,0,1.48,0,.78.07,1.48.13,2.1l-3.77,3.44c-.06-.62-.11-1.32-.14-2.1,0-.48,0-1,0-1.48" transform="translate(-136.85 -272.89)"/><path class="cls-20" d="M174.58,307.31l3.77-3.44c.05.55.12,1,.19,1.45l-3.77,3.44c-.08-.42-.14-.9-.19-1.45" transform="translate(-136.85 -272.89)"/><path class="cls-21" d="M174.77,308.76l3.77-3.44.06.26L174.82,309c0-.08,0-.17,0-.26" transform="translate(-136.85 -272.89)"/></g></g></g><g class="cls-4"><g class="cls-22"><g class="cls-4"><path class="cls-19" d="M169.85,276.33l3.78-3.44h.11L170,276.34h-.11" transform="translate(-136.85 -272.89)"/><path class="cls-18" d="M170,276.34l3.78-3.44a7.42,7.42,0,0,1,.84.1l-3.77,3.44c-.27,0-.55-.08-.85-.1" transform="translate(-136.85 -272.89)"/><path class="cls-17" d="M170.81,276.44l3.77-3.44c.24,0,.48.08.71.14l-3.78,3.44-.7-.14" transform="translate(-136.85 -272.89)"/><path class="cls-20" d="M171.51,276.58l3.78-3.44a6.32,6.32,0,0,1,.62.18l-3.77,3.44a5.79,5.79,0,0,0-.63-.18" transform="translate(-136.85 -272.89)"/><path class="cls-21" d="M172.14,276.76l3.77-3.44.58.23L172.71,277c-.18-.08-.37-.16-.57-.23" transform="translate(-136.85 -272.89)"/><path class="cls-6" d="M172.71,277l3.78-3.44a5.33,5.33,0,0,1,.58.31l-3.77,3.44c-.19-.11-.38-.21-.59-.31" transform="translate(-136.85 -272.89)"/><path class="cls-7" d="M173.3,277.3l3.77-3.44a4.54,4.54,0,0,1,.74.54L174,277.84a5,5,0,0,0-.74-.54" transform="translate(-136.85 -272.89)"/><path class="cls-8" d="M174,277.84l3.77-3.44a5,5,0,0,1,.88,1l-3.77,3.44a5,5,0,0,0-.88-1" transform="translate(-136.85 -272.89)"/><path class="cls-7" d="M174.92,278.86l3.77-3.44c.1.16.2.32.29.49l-3.78,3.44a4.76,4.76,0,0,0-.28-.49" transform="translate(-136.85 -272.89)"/></g></g></g><g class="cls-4"><g class="cls-23"><g class="cls-4"><path class="cls-15" d="M175.2,279.35l3.78-3.44a10.7,10.7,0,0,1,1.12-.57l-3.77,3.45a11.86,11.86,0,0,0-1.13.56" transform="translate(-136.85 -272.89)"/><path class="cls-14" d="M176.33,278.79l3.77-3.45a11.4,11.4,0,0,1,1.42-.51l-3.77,3.44a10,10,0,0,0-1.42.52" transform="translate(-136.85 -272.89)"/><path class="cls-13" d="M177.75,278.27l3.77-3.44a12.39,12.39,0,0,1,1.27-.3L179,278a12.85,12.85,0,0,0-1.26.3" transform="translate(-136.85 -272.89)"/><path class="cls-12" d="M179,278l3.78-3.44a12.34,12.34,0,0,1,1.24-.17l-3.77,3.44A12.54,12.54,0,0,0,179,278" transform="translate(-136.85 -272.89)"/><path class="cls-11" d="M180.26,277.8l3.77-3.44c.41,0,.83-.06,1.27-.06h.07l-3.77,3.45h-.08q-.65,0-1.26.06" transform="translate(-136.85 -272.89)"/><path class="cls-19" d="M181.6,277.74l3.77-3.45h.06c.3,0,.59,0,.88,0l-3.77,3.44c-.29,0-.58,0-.88,0h-.06" transform="translate(-136.85 -272.89)"/><path class="cls-18" d="M182.54,277.77l3.77-3.44c.28,0,.56.05.83.09l-3.78,3.45a7.35,7.35,0,0,0-.82-.1" transform="translate(-136.85 -272.89)"/><path class="cls-17" d="M183.36,277.87l3.78-3.45.75.16L184.12,278c-.25-.06-.5-.11-.76-.15" transform="translate(-136.85 -272.89)"/><path class="cls-20" d="M184.12,278l3.77-3.44c.25.06.49.13.73.21l-3.78,3.44q-.34-.12-.72-.21" transform="translate(-136.85 -272.89)"/><path class="cls-21" d="M184.84,278.23l3.78-3.44c.25.09.49.18.73.29l-3.78,3.44c-.23-.11-.48-.2-.73-.29" transform="translate(-136.85 -272.89)"/><path class="cls-6" d="M185.57,278.52l3.78-3.44a7.82,7.82,0,0,1,.81.43L186.38,279a7.82,7.82,0,0,0-.81-.43" transform="translate(-136.85 -272.89)"/><path class="cls-7" d="M186.38,279l3.78-3.44a7.81,7.81,0,0,1,1.07.77l.08.07-3.77,3.44-.09-.07a7.24,7.24,0,0,0-1.07-.77" transform="translate(-136.85 -272.89)"/><path class="cls-8" d="M187.54,279.79l3.77-3.44a7.48,7.48,0,0,1,1.41,1.61L189,281.4a8.35,8.35,0,0,0-1.41-1.61" transform="translate(-136.85 -272.89)"/><path class="cls-7" d="M189,281.4l3.77-3.44a6.09,6.09,0,0,1,.52,1l-3.77,3.44a7,7,0,0,0-.52-1" transform="translate(-136.85 -272.89)"/><path class="cls-6" d="M189.47,282.37l3.77-3.44c.08.21.16.42.22.63L189.69,283c-.06-.21-.14-.42-.22-.63" transform="translate(-136.85 -272.89)"/><path class="cls-21" d="M189.69,283l3.77-3.44a4.9,4.9,0,0,1,.13.55l-3.77,3.44c0-.19-.08-.37-.13-.55" transform="translate(-136.85 -272.89)"/><path class="cls-20" d="M189.82,283.55l3.77-3.44a4.34,4.34,0,0,1,.07.52l-3.77,3.44c0-.18,0-.35-.07-.52" transform="translate(-136.85 -272.89)"/><path class="cls-17" d="M189.89,284.07l3.77-3.44,0,.36v.2l-3.77,3.44a1.34,1.34,0,0,0,0-.2c0-.12,0-.24,0-.36" transform="translate(-136.85 -272.89)"/><path class="cls-18" d="M189.92,284.63l3.77-3.44c0,.21,0,.42,0,.64l-3.77,3.44c0-.21,0-.43,0-.64" transform="translate(-136.85 -272.89)"/><path class="cls-19" d="M189.9,285.27l3.77-3.44c0,.22,0,.44-.07.65l-3.77,3.44c0-.21,0-.43.07-.65" transform="translate(-136.85 -272.89)"/><path class="cls-11" d="M189.83,285.92l3.77-3.44c0,.24-.08.47-.14.7l-3.77,3.44c.06-.23.1-.46.14-.7" transform="translate(-136.85 -272.89)"/><path class="cls-12" d="M189.69,286.62l3.77-3.44a7.67,7.67,0,0,1-.23.78l-3.77,3.44a7.67,7.67,0,0,0,.23-.78" transform="translate(-136.85 -272.89)"/><path class="cls-13" d="M189.46,287.4l3.77-3.44a7.4,7.4,0,0,1-.38.94l-3.77,3.44a8.4,8.4,0,0,0,.38-.94" transform="translate(-136.85 -272.89)"/><path class="cls-14" d="M189.08,288.34l3.77-3.44a12.16,12.16,0,0,1-.71,1.32l-3.78,3.44a10.74,10.74,0,0,0,.72-1.32" transform="translate(-136.85 -272.89)"/><path class="cls-15" d="M188.36,289.66l3.78-3.44-.09.13a9.47,9.47,0,0,1-1.54,1.82l-3.77,3.44a9.18,9.18,0,0,0,1.54-1.82l.08-.13" transform="translate(-136.85 -272.89)"/></g></g></g><path class="cls-24" d="M169.85,276.33q4,.27,5.35,3a12.6,12.6,0,0,1,6.32-1.61h.14a8.58,8.58,0,0,1,5.79,2,6.38,6.38,0,0,1,2.46,4.71,9.09,9.09,0,0,1-1.63,5.36,10.72,10.72,0,0,1-5.32,4.09l.56,1.51a40.29,40.29,0,0,0,4.39,8.58,32.29,32.29,0,0,0,4.54,5.78,11.21,11.21,0,0,1-2.85.41,5.57,5.57,0,0,1-2.9-.88,11.81,11.81,0,0,1-2.48-2,17.26,17.26,0,0,1-2.25-3.44c-.85-1.57-1.45-2.8-1.82-3.68s-.77-1.85-1.22-2.9-.68-1.64-.71-1.71-.07-.18-.12-.29a2.16,2.16,0,0,1-.14-.33l-1.67,0-.18-1.8c3.29-.16,5.71-1.36,7.23-3.61a6.26,6.26,0,0,0,1.19-3.82,7.46,7.46,0,0,0-.2-1.44,4.25,4.25,0,0,0-3.29-3.12,7.12,7.12,0,0,0-1.8-.18h-.15a9.45,9.45,0,0,0-3.29.85c0,1-.22,4.21-.75,9.68a105.35,105.35,0,0,0-.61,13.69,23.91,23.91,0,0,0,.38,3.81c-.83.06-1.38.1-1.64.1a5.31,5.31,0,0,1-3.22-.75,3.27,3.27,0,0,1-1.08-2.6c0-1.22.26-4.91.89-11.08a105.9,105.9,0,0,0,.82-13.21A15.26,15.26,0,0,0,169.85,276.33Z" transform="translate(-136.85 -272.89)"/></g></g></svg>