<svg id="Camada_1" data-name="Camada 1" xmlns="http://www.w3.org/2000/svg" xmlns:xlink="http://www.w3.org/1999/xlink" viewBox="0 0 92 92"><defs><style>.cls-1{fill:none;}.cls-2{font-size:21px;font-family:Merienda-Bold, Merienda;font-weight:700;letter-spacing:-0.05em;}.cls-2,.cls-24{fill:#d3222a;}.cls-3{opacity:0.25;}.cls-4{isolation:isolate;}.cls-5{clip-path:url(#clip-path);}.cls-6{fill:#98181e;}.cls-7{fill:#9c191f;}.cls-8{fill:#a01a20;}.cls-9{clip-path:url(#clip-path-2);}.cls-10{fill:#7f1419;}.cls-11{fill:#7a1418;}.cls-12{fill:#761318;}.cls-13{fill:#721217;}.cls-14{fill:#6e1216;}.cls-15{clip-path:url(#clip-path-3);}.cls-16{fill:#8b161c;}.cls-17{fill:#87161b;}.cls-18{fill:#83151a;}.cls-19{fill:#8f171d;}.cls-20{fill:#94181d;}.cls-21{clip-path:url(#clip-path-4);}.cls-22{clip-path:url(#clip-path-5);}.cls-23{fill:#a71b21;}.cls-24{opacity:0;}</style><clipPath id="clip-path" transform="translate(-136.7 -248.13)"><path class="cls-1" d="M183.68,293.83l3.77-3.45a40.89,40.89,0,0,0,4.37,8.58,31.65,31.65,0,0,0,4.56,5.77l-3.77,3.44a31.21,31.21,0,0,1-4.56-5.77A40.35,40.35,0,0,1,183.68,293.83Z"/></clipPath><clipPath id="clip-path-2" transform="translate(-136.7 -248.13)"><path class="cls-1" d="M186.08,285.93l-3.78,3.44a9.32,9.32,0,0,1-6.05,2.22l3.77-3.44A9.35,9.35,0,0,0,186.08,285.93Z"/></clipPath><clipPath id="clip-path-3" transform="translate(-136.7 -248.13)"><path class="cls-1" d="M176,280.27l3.77-3.44q.06,1.47-.75,9.68a103.36,103.36,0,0,0-.6,13.69,24.12,24.12,0,0,0,.37,3.81L175,307.45a24,24,0,0,1-.37-3.81,105,105,0,0,1,.59-13.69C175.73,284.48,176,281.26,176,280.27Z"/></clipPath><clipPath id="clip-path-4" transform="translate(-136.7 -248.13)"><path class="cls-1" d="M170,274.77l3.77-3.44q3.94.26,5.34,3l-3.77,3.44Q174,275,170,274.77Z"/></clipPath><clipPath id="clip-path-5" transform="translate(-136.7 -248.13)"><path class="cls-1" d="M190.65,286.61l-3.77,3.44a10,10,0,0,0,3.18-7.19,6.37,6.37,0,0,0-2.45-4.71,8.63,8.63,0,0,0-5.8-2h-.14a12.63,12.63,0,0,0-6.32,1.62l3.77-3.44a12.64,12.64,0,0,1,6.33-1.62h.14a8.62,8.62,0,0,1,5.79,2,6.35,6.35,0,0,1,2.45,4.7,9.15,9.15,0,0,1-1.63,5.37A9.29,9.29,0,0,1,190.65,286.61Z"/></clipPath></defs><title>Logo</title><text class="cls-2" transform="translate(0.3 52.13)">RealTaste</text><g class="cls-3"><g class="cls-4"><g class="cls-4"><g class="cls-5"><g class="cls-4"><path class="cls-6" d="M183.68,293.83l3.77-3.45c.2.55.41,1.1.64,1.65l-3.77,3.44c-.23-.55-.44-1.09-.64-1.64" transform="translate(-136.7 -248.13)"/><path class="cls-7" d="M184.32,295.47l3.77-3.44a41.16,41.16,0,0,0,3.47,6.52L187.78,302a41.09,41.09,0,0,1-3.46-6.52" transform="translate(-136.7 -248.13)"/><path class="cls-8" d="M187.78,302l3.78-3.44c.08.14.17.27.26.41a31.65,31.65,0,0,0,4.56,5.77l-3.77,3.44a31.21,31.21,0,0,1-4.56-5.77l-.27-.41" transform="translate(-136.7 -248.13)"/></g></g></g><polygon class="cls-8" points="46.41 44.17 50.19 40.73 50.75 42.25 46.98 45.69 46.41 44.17"/><g class="cls-4"><g class="cls-9"><g class="cls-4"><path class="cls-10" d="M176.25,291.59l3.77-3.44.61,0-3.78,3.44-.6,0" transform="translate(-136.7 -248.13)"/><path class="cls-11" d="M176.85,291.55l3.78-3.44q.59-.06,1.14-.15L178,291.4c-.37.06-.75.12-1.15.15" transform="translate(-136.7 -248.13)"/><path class="cls-12" d="M178,291.4l3.77-3.44c.37-.07.73-.16,1.07-.26l-3.77,3.44c-.34.1-.7.19-1.07.26" transform="translate(-136.7 -248.13)"/><path class="cls-13" d="M179.07,291.14l3.77-3.44a9.07,9.07,0,0,0,1.11-.4l-3.78,3.44a7.54,7.54,0,0,1-1.1.4" transform="translate(-136.7 -248.13)"/><path class="cls-14" d="M180.17,290.74,184,287.3a7.85,7.85,0,0,0,2.13-1.37l-3.78,3.44a7.85,7.85,0,0,1-2.13,1.37" transform="translate(-136.7 -248.13)"/></g></g></g><g class="cls-4"><g class="cls-15"><g class="cls-4"><path class="cls-16" d="M176,280.27l3.77-3.44V277L176,280.4v-.13" transform="translate(-136.7 -248.13)"/><path class="cls-17" d="M176,280.4l3.77-3.44c0,.42,0,1.15-.1,2.17l-3.77,3.44c.07-1,.1-1.75.1-2.17" transform="translate(-136.7 -248.13)"/><path class="cls-18" d="M175.85,282.57l3.77-3.44q-.17,2.49-.65,7.38c-.15,1.53-.28,3-.37,4.39l-3.78,3.44c.1-1.39.22-2.85.37-4.39.33-3.25.54-5.72.66-7.38" transform="translate(-136.7 -248.13)"/><path class="cls-17" d="M174.82,294.34l3.78-3.44q-.32,4.38-.27,7.81l-3.77,3.44c0-2.28.06-4.89.26-7.81" transform="translate(-136.7 -248.13)"/><path class="cls-16" d="M174.56,302.15l3.77-3.44c0,.51,0,1,0,1.49,0,.8.07,1.52.13,2.14l-3.77,3.45c-.06-.63-.1-1.35-.13-2.15,0-.48,0-1,0-1.49" transform="translate(-136.7 -248.13)"/><path class="cls-19" d="M174.73,305.79l3.77-3.45c.06.57.13,1.07.21,1.49l-3.78,3.45c-.08-.43-.14-.92-.2-1.49" transform="translate(-136.7 -248.13)"/><path class="cls-20" d="M174.93,307.28l3.78-3.45,0,.18L175,307.45a1,1,0,0,1,0-.17" transform="translate(-136.7 -248.13)"/></g></g></g><g class="cls-4"><g class="cls-21"><g class="cls-4"><path class="cls-18" d="M170,274.77l3.77-3.44h.11l-3.77,3.44H170" transform="translate(-136.7 -248.13)"/><path class="cls-17" d="M170.12,274.77l3.77-3.44.84.1L171,274.87l-.84-.1" transform="translate(-136.7 -248.13)"/><path class="cls-16" d="M171,274.87l3.77-3.44.71.14L171.67,275c-.23-.06-.47-.11-.71-.15" transform="translate(-136.7 -248.13)"/><path class="cls-19" d="M171.67,275l3.77-3.45.62.19-3.77,3.44a6.32,6.32,0,0,0-.62-.18" transform="translate(-136.7 -248.13)"/><path class="cls-20" d="M172.29,275.2l3.77-3.44a5.77,5.77,0,0,1,.58.22l-3.78,3.45a4.84,4.84,0,0,0-.57-.23" transform="translate(-136.7 -248.13)"/><path class="cls-6" d="M172.86,275.43l3.78-3.45.58.31-3.78,3.44a4.51,4.51,0,0,0-.58-.3" transform="translate(-136.7 -248.13)"/><path class="cls-7" d="M173.44,275.73l3.78-3.44a5.6,5.6,0,0,1,.74.54l-3.78,3.44a4.54,4.54,0,0,0-.74-.54" transform="translate(-136.7 -248.13)"/><path class="cls-8" d="M174.18,276.27l3.78-3.44a4.52,4.52,0,0,1,.87,1l-3.77,3.44a5,5,0,0,0-.88-1" transform="translate(-136.7 -248.13)"/><path class="cls-7" d="M175.06,277.29l3.77-3.44a4.08,4.08,0,0,1,.29.5l-3.77,3.44c-.09-.18-.19-.34-.29-.5" transform="translate(-136.7 -248.13)"/></g></g></g><g class="cls-4"><g class="cls-22"><g class="cls-4"><path class="cls-14" d="M175.35,277.79l3.77-3.44a10.7,10.7,0,0,1,1.12-.57l-3.78,3.44a11.61,11.61,0,0,0-1.11.57" transform="translate(-136.7 -248.13)"/><path class="cls-13" d="M176.46,277.22l3.78-3.44a13.49,13.49,0,0,1,1.43-.52l-3.77,3.44a13.67,13.67,0,0,0-1.44.52" transform="translate(-136.7 -248.13)"/><path class="cls-12" d="M177.9,276.7l3.77-3.44a12.39,12.39,0,0,1,1.27-.3l-3.78,3.44a12.85,12.85,0,0,0-1.26.3" transform="translate(-136.7 -248.13)"/><path class="cls-11" d="M179.16,276.4l3.78-3.44c.4-.07.82-.13,1.24-.17l-3.77,3.44c-.43,0-.84.1-1.25.17" transform="translate(-136.7 -248.13)"/><path class="cls-10" d="M180.41,276.23l3.77-3.44c.42,0,.84-.06,1.27-.06h.07l-3.78,3.44h-.07q-.64,0-1.26.06" transform="translate(-136.7 -248.13)"/><path class="cls-18" d="M181.74,276.17l3.78-3.44h.07c.3,0,.59,0,.88,0l-3.78,3.44c-.28,0-.58,0-.88,0h-.07" transform="translate(-136.7 -248.13)"/><path class="cls-17" d="M182.69,276.2l3.78-3.44c.28,0,.55.06.82.1l-3.77,3.44-.83-.1" transform="translate(-136.7 -248.13)"/><path class="cls-16" d="M183.52,276.3l3.77-3.44c.26,0,.51.09.76.15l-3.78,3.44q-.36-.09-.75-.15" transform="translate(-136.7 -248.13)"/><path class="cls-19" d="M184.27,276.45l3.78-3.44q.36.09.72.21L185,276.66c-.24-.08-.48-.15-.73-.21" transform="translate(-136.7 -248.13)"/><path class="cls-20" d="M185,276.66l3.77-3.44.73.29L185.73,277l-.73-.29" transform="translate(-136.7 -248.13)"/><path class="cls-6" d="M185.73,277l3.77-3.44a7.82,7.82,0,0,1,.81.43l-3.78,3.44a8.83,8.83,0,0,0-.8-.43" transform="translate(-136.7 -248.13)"/><path class="cls-7" d="M186.53,277.38l3.78-3.44a7.81,7.81,0,0,1,1.07.77l.09.08-3.78,3.44-.08-.08a7.33,7.33,0,0,0-1.08-.77" transform="translate(-136.7 -248.13)"/><path class="cls-8" d="M187.69,278.23l3.78-3.44a7.41,7.41,0,0,1,1.4,1.6l-3.77,3.44a7.21,7.21,0,0,0-1.41-1.6" transform="translate(-136.7 -248.13)"/><path class="cls-7" d="M189.1,279.83l3.77-3.44a5.6,5.6,0,0,1,.52,1l-3.78,3.44a6.33,6.33,0,0,0-.51-1" transform="translate(-136.7 -248.13)"/><path class="cls-6" d="M189.61,280.79l3.78-3.44c.08.21.15.42.22.63l-3.78,3.44a5.25,5.25,0,0,0-.22-.63" transform="translate(-136.7 -248.13)"/><path class="cls-20" d="M189.83,281.42l3.78-3.44a5.23,5.23,0,0,1,.12.54L190,282a5.29,5.29,0,0,0-.13-.54" transform="translate(-136.7 -248.13)"/><path class="cls-19" d="M190,282l3.77-3.44a4.5,4.5,0,0,1,.08.51L190,282.47A4.46,4.46,0,0,0,190,282" transform="translate(-136.7 -248.13)"/><path class="cls-16" d="M190,282.47l3.78-3.44c0,.13,0,.25,0,.38a1.15,1.15,0,0,0,0,.19L190.06,283v-.18l0-.39" transform="translate(-136.7 -248.13)"/><path class="cls-17" d="M190.06,283l3.78-3.44c0,.22,0,.44,0,.66L190,283.7c0-.22,0-.44,0-.66" transform="translate(-136.7 -248.13)"/><path class="cls-18" d="M190,283.7l3.78-3.44c0,.22,0,.44-.08.66L190,284.36c0-.22.06-.44.07-.66" transform="translate(-136.7 -248.13)"/><path class="cls-10" d="M190,284.36l3.77-3.44c0,.23-.08.46-.13.7l-3.78,3.44c.06-.24.1-.47.14-.7" transform="translate(-136.7 -248.13)"/><path class="cls-11" d="M189.83,285.06l3.78-3.44c-.07.26-.14.52-.23.78l-3.78,3.44a7.67,7.67,0,0,0,.23-.78" transform="translate(-136.7 -248.13)"/><path class="cls-12" d="M189.6,285.84l3.78-3.44c-.11.31-.24.62-.38.94l-3.78,3.44a7.4,7.4,0,0,0,.38-.94" transform="translate(-136.7 -248.13)"/><path class="cls-13" d="M189.22,286.78l3.78-3.44a10.63,10.63,0,0,1-.72,1.31l-3.77,3.44a12,12,0,0,0,.71-1.31" transform="translate(-136.7 -248.13)"/><path class="cls-14" d="M188.51,288.09l3.77-3.44-.08.13a9.29,9.29,0,0,1-1.55,1.83l-3.77,3.44a9.24,9.24,0,0,0,1.54-1.83l.09-.13" transform="translate(-136.7 -248.13)"/></g></g></g><path class="cls-23" d="M170,274.77q3.94.25,5.34,3a12.63,12.63,0,0,1,6.32-1.62h.14a8.63,8.63,0,0,1,5.8,2,6.37,6.37,0,0,1,2.45,4.71,9.16,9.16,0,0,1-1.64,5.36,10.53,10.53,0,0,1-5.31,4.08l.57,1.53a40.35,40.35,0,0,0,4.37,8.57,31.21,31.21,0,0,0,4.56,5.77,10.53,10.53,0,0,1-2.86.42,5.49,5.49,0,0,1-2.9-.88,10.94,10.94,0,0,1-2.47-2,17.09,17.09,0,0,1-2.26-3.44c-.84-1.58-1.45-2.81-1.82-3.68s-.78-1.85-1.22-2.92l-.71-1.7-.12-.29a1,1,0,0,1-.13-.33l-1.68,0-.19-1.8c3.3-.16,5.71-1.36,7.25-3.61a6.49,6.49,0,0,0,1.19-3.83,6.77,6.77,0,0,0-.22-1.43,4.21,4.21,0,0,0-3.28-3.12,7,7,0,0,0-1.78-.18h-.17a9.74,9.74,0,0,0-3.29.85c0,1-.22,4.21-.76,9.68a105,105,0,0,0-.59,13.69,24,24,0,0,0,.37,3.81l-1.64.1a5.37,5.37,0,0,1-3.23-.75,3.23,3.23,0,0,1-1.07-2.6q-.08-1.83.9-11.08a107.47,107.47,0,0,0,.81-13.21A15.54,15.54,0,0,0,170,274.77Z" transform="translate(-136.7 -248.13)"/></g></g><rect class="cls-24" width="92" height="92"/></svg>