<svg xmlns="http://www.w3.org/2000/svg" xmlns:xlink="http://www.w3.org/1999/xlink" viewBox="0 0 27.35 37.27"><defs><style>.cls-1{fill:none;}.cls-2{isolation:isolate;}.cls-3{clip-path:url(#clip-path);}.cls-4{fill:#b82f2b;}.cls-5{fill:#bd302c;}.cls-6{fill:#c2312e;}.cls-7{clip-path:url(#clip-path-2);}.cls-8{fill:#992724;}.cls-9{fill:#942623;}.cls-10{fill:#8f2422;}.cls-11{fill:#8a2320;}.cls-12{fill:#85221f;}.cls-13{clip-path:url(#clip-path-3);}.cls-14{fill:#a82b28;}.cls-15{fill:#a32a26;}.cls-16{fill:#9e2825;}.cls-17{fill:#ad2c29;}.cls-18{fill:#b32d2a;}.cls-19{clip-path:url(#clip-path-4);}.cls-20{clip-path:url(#clip-path-5);}.cls-21{fill:#ca3330;}</style><clipPath id="clip-path"><path class="cls-1" d="M14.65,22.5l3.77-3.44a40,40,0,0,0,4.38,8.58,32.53,32.53,0,0,0,4.55,5.77l-3.77,3.45A32.61,32.61,0,0,1,19,31.08,39.55,39.55,0,0,1,14.65,22.5Z"/></clipPath><clipPath id="clip-path-2"><path class="cls-1" d="M17,14.61l-3.77,3.44a9.38,9.38,0,0,1-6,2.23L11,16.84A9.38,9.38,0,0,0,17,14.61Z"/></clipPath><clipPath id="clip-path-3"><path class="cls-1" d="M6.93,9,10.7,5.51c0,1-.22,4.21-.75,9.68a101.9,101.9,0,0,0-.61,13.69,22.55,22.55,0,0,0,.38,3.81L5.94,36.14a24.14,24.14,0,0,1-.37-3.82,103.36,103.36,0,0,1,.6-13.69C6.7,13.17,7,9.94,6.93,9Z"/></clipPath><clipPath id="clip-path-4"><path class="cls-1" d="M1,3.44,4.75,0C7.39.19,9.17,1.19,10.1,3L6.33,6.46C5.4,4.63,3.61,3.63,1,3.44Z"/></clipPath><clipPath id="clip-path-5"><path class="cls-1" d="M21.64,15.27l-3.77,3.44a9,9,0,0,0,1.53-1.8A9.21,9.21,0,0,0,21,11.54a6.38,6.38,0,0,0-2.46-4.7,8.6,8.6,0,0,0-5.84-2h-.1A12.67,12.67,0,0,0,6.33,6.46L10.1,3A12.79,12.79,0,0,1,16.42,1.4h.09a8.61,8.61,0,0,1,5.84,2,6.38,6.38,0,0,1,2.46,4.7,9.21,9.21,0,0,1-1.63,5.37A9.07,9.07,0,0,1,21.64,15.27Z"/></clipPath></defs><title>Logo-RAtivo 2</title><g id="Camada_2" data-name="Camada 2"><g id="Camada_1-2" data-name="Camada 1"><g class="cls-2"><g class="cls-2"><g class="cls-3"><g class="cls-2"><path class="cls-4" d="M14.65,22.5l3.77-3.44c.2.56.42,1.11.65,1.67L15.3,24.17c-.24-.56-.45-1.11-.65-1.67"/><path class="cls-5" d="M15.3,24.17l3.77-3.44a40.56,40.56,0,0,0,3.39,6.38l-3.78,3.44a39.68,39.68,0,0,1-3.38-6.38"/><path class="cls-6" d="M18.68,30.55l3.78-3.44.34.53a32.53,32.53,0,0,0,4.55,5.77l-3.77,3.45A32.61,32.61,0,0,1,19,31.08l-.35-.53"/></g></g></g><polygon class="cls-6" points="14.08 20.99 17.85 17.55 18.42 19.06 14.65 22.5 14.08 20.99"/><g class="cls-2"><g class="cls-7"><g class="cls-2"><path class="cls-8" d="M7.23,20.28,11,16.84l.6-.05L7.83,20.24l-.6,0"/><path class="cls-9" d="M7.83,20.24l3.77-3.45a9.94,9.94,0,0,0,1.13-.15L9,20.08c-.36.07-.74.12-1.13.16"/><path class="cls-10" d="M9,20.08l3.77-3.44c.37-.07.73-.15,1.07-.25L10,19.83c-.34.1-.7.18-1.07.25"/><path class="cls-11" d="M10,19.83l3.77-3.44a11.11,11.11,0,0,0,1.11-.4l-3.77,3.44a9.07,9.07,0,0,1-1.11.4"/><path class="cls-12" d="M11.14,19.43,14.91,16A7.88,7.88,0,0,0,17,14.61l-3.77,3.44a7.65,7.65,0,0,1-2.13,1.38"/></g></g></g><g class="cls-2"><g class="cls-13"><g class="cls-2"><path class="cls-14" d="M6.93,9,10.7,5.51v.13L6.93,9.08V9"/><path class="cls-15" d="M6.93,9.08,10.7,5.64c0,.41,0,1.1-.09,2.08L6.83,11.16c.07-1,.1-1.67.1-2.08"/><path class="cls-16" d="M6.83,11.16l3.78-3.44q-.18,2.51-.66,7.47c-.16,1.59-.29,3.09-.39,4.53L5.79,23.16c.1-1.43.23-2.94.38-4.53.32-3.31.55-5.8.66-7.47"/><path class="cls-15" d="M5.79,23.16l3.77-3.44Q9.26,24,9.3,27.39L5.53,30.84q0-3.39.26-7.68"/><path class="cls-14" d="M5.53,30.84,9.3,27.39c0,.52,0,1,0,1.49,0,.79.07,1.49.13,2.11L5.7,34.43c-.06-.62-.1-1.32-.13-2.11,0-.48,0-1,0-1.48"/><path class="cls-17" d="M5.7,34.43,9.47,31c0,.55.12,1,.2,1.45L5.89,35.88c-.07-.42-.14-.9-.19-1.45"/><path class="cls-18" d="M5.89,35.88l3.78-3.44a1.84,1.84,0,0,0,.05.25L5.94,36.14a2.38,2.38,0,0,0-.05-.26"/></g></g></g><g class="cls-2"><g class="cls-19"><g class="cls-2"><path class="cls-16" d="M1,3.44,4.75,0h.07L1.05,3.45H1"/><path class="cls-15" d="M1.05,3.45,4.82,0a7.51,7.51,0,0,1,.86.1L1.91,3.55a7.79,7.79,0,0,0-.86-.1"/><path class="cls-14" d="M1.91,3.55,5.68.11c.25,0,.49.08.72.14L2.63,3.69l-.72-.14"/><path class="cls-17" d="M2.63,3.69,6.4.25c.22,0,.43.12.63.18L3.26,3.88l-.63-.19"/><path class="cls-18" d="M3.26,3.88,7,.43l.58.23L3.84,4.11a5.83,5.83,0,0,0-.58-.23"/><path class="cls-4" d="M3.84,4.11,7.61.66c.21.1.4.2.59.31L4.43,4.41a6.54,6.54,0,0,0-.59-.3"/><path class="cls-5" d="M4.43,4.41,8.2,1a5,5,0,0,1,.74.54L5.17,5a5.6,5.6,0,0,0-.74-.54"/><path class="cls-6" d="M5.17,5,8.94,1.51a5,5,0,0,1,.88,1L6,6a5,5,0,0,0-.87-1"/><path class="cls-5" d="M6,6,9.82,2.53c.1.16.19.32.28.49L6.33,6.46A4.85,4.85,0,0,0,6,6"/></g></g></g><g class="cls-2"><g class="cls-20"><g class="cls-2"><path class="cls-12" d="M6.33,6.46,10.1,3a10.26,10.26,0,0,1,1.1-.55L7.42,5.91c-.37.17-.74.35-1.09.55"/><path class="cls-11" d="M7.42,5.91,11.2,2.47a11.2,11.2,0,0,1,1.44-.53L8.87,5.38a13.88,13.88,0,0,0-1.45.53"/><path class="cls-10" d="M8.87,5.38l3.77-3.44c.42-.12.84-.22,1.28-.3L10.15,5.08a12.59,12.59,0,0,0-1.28.3"/><path class="cls-9" d="M10.15,5.08l3.77-3.44c.41-.08.84-.13,1.27-.17L11.42,4.91a12.55,12.55,0,0,0-1.27.17"/><path class="cls-8" d="M11.42,4.91l3.77-3.44c.4,0,.81-.06,1.23-.07h0L12.67,4.85h0c-.41,0-.82,0-1.22.06"/><path class="cls-16" d="M12.67,4.85,16.44,1.4h.07c.31,0,.61,0,.9,0L13.64,4.88l-.9,0h-.07"/><path class="cls-15" d="M13.64,4.88l3.77-3.44a7.42,7.42,0,0,1,.84.1L14.48,5a8,8,0,0,0-.84-.1"/><path class="cls-14" d="M14.48,5l3.77-3.44c.26,0,.51.09.76.15L15.24,5.13C15,5.07,14.74,5,14.48,5"/><path class="cls-17" d="M15.24,5.13,19,1.69c.25.06.49.13.73.21L16,5.35a5.48,5.48,0,0,0-.72-.22"/><path class="cls-18" d="M16,5.35,19.74,1.9l.73.29L16.7,5.63c-.24-.1-.49-.2-.74-.28"/><path class="cls-4" d="M16.7,5.63l3.77-3.44c.27.13.54.27.8.42L17.5,6.06a8.83,8.83,0,0,0-.8-.43"/><path class="cls-5" d="M17.5,6.06l3.77-3.45a7.46,7.46,0,0,1,1.08.79l.07.06L18.65,6.9l-.07-.06a6.72,6.72,0,0,0-1.08-.78"/><path class="cls-6" d="M18.65,6.9l3.77-3.44a7.43,7.43,0,0,1,1.43,1.62L20.07,8.52A7.86,7.86,0,0,0,18.65,6.9"/><path class="cls-5" d="M20.07,8.52l3.78-3.44a6,6,0,0,1,.51,1L20.59,9.49a5.34,5.34,0,0,0-.52-1"/><path class="cls-4" d="M20.59,9.49l3.77-3.44a4.26,4.26,0,0,1,.22.63l-3.77,3.44a5.83,5.83,0,0,0-.22-.63"/><path class="cls-18" d="M20.81,10.12l3.77-3.44a3.53,3.53,0,0,1,.13.54l-3.77,3.44a5.29,5.29,0,0,0-.13-.54"/><path class="cls-17" d="M20.94,10.66l3.77-3.44c0,.17.06.35.08.52L21,11.18a4.63,4.63,0,0,0-.07-.52"/><path class="cls-14" d="M21,11.18l3.78-3.44c0,.12,0,.24,0,.36v.2L21,11.74v-.2l0-.36"/><path class="cls-15" d="M21,11.74,24.81,8.3c0,.21,0,.42,0,.64L21,12.38c0-.21,0-.43,0-.64"/><path class="cls-16" d="M21,12.38,24.8,8.94c0,.22,0,.44-.08.66L21,13c0-.22.06-.44.07-.66"/><path class="cls-8" d="M21,13,24.72,9.6a6.19,6.19,0,0,1-.14.7l-3.77,3.44c.06-.23.1-.47.14-.7"/><path class="cls-9" d="M20.81,13.74l3.77-3.44a7.67,7.67,0,0,1-.23.78l-3.77,3.44a7.67,7.67,0,0,0,.23-.78"/><path class="cls-10" d="M20.58,14.52l3.77-3.44A7.52,7.52,0,0,1,24,12L20.2,15.47a9.4,9.4,0,0,0,.38-1"/><path class="cls-11" d="M20.2,15.47,24,12a11.91,11.91,0,0,1-.71,1.3l-3.77,3.45a13,13,0,0,0,.71-1.31"/><path class="cls-12" d="M19.49,16.78l3.77-3.45a1,1,0,0,0-.08.14,9.07,9.07,0,0,1-1.54,1.8l-3.77,3.44a9,9,0,0,0,1.53-1.8l.09-.13"/></g></g></g><path class="cls-21" d="M1,3.44c2.63.19,4.42,1.19,5.35,3a12.67,12.67,0,0,1,6.31-1.61h.1a8.6,8.6,0,0,1,5.84,2A6.38,6.38,0,0,1,21,11.54a9.21,9.21,0,0,1-1.64,5.37A10.67,10.67,0,0,1,14.08,21l.57,1.51A39.55,39.55,0,0,0,19,31.08a32.61,32.61,0,0,0,4.55,5.78,11.29,11.29,0,0,1-2.86.41,5.45,5.45,0,0,1-2.9-.89,11.12,11.12,0,0,1-2.47-2A16.52,16.52,0,0,1,13.09,31c-.84-1.57-1.44-2.8-1.81-3.68s-.78-1.85-1.23-2.9l-.71-1.71c0-.08-.07-.18-.12-.29a2.16,2.16,0,0,1-.14-.33H7.41l-.18-1.78c3.29-.16,5.71-1.37,7.24-3.62a6.39,6.39,0,0,0,1.19-3.82,7.69,7.69,0,0,0-.21-1.44,4.26,4.26,0,0,0-3.29-3.12,7.12,7.12,0,0,0-1.8-.18h-.15A9.41,9.41,0,0,0,6.93,9c0,1-.23,4.22-.76,9.68a103.36,103.36,0,0,0-.6,13.69,24.14,24.14,0,0,0,.37,3.82c-.83,0-1.38.08-1.63.08H4.16a5.05,5.05,0,0,1-3.08-.75A3.23,3.23,0,0,1,0,32.88C0,31.66.26,28,.9,21.8A107.23,107.23,0,0,0,1.71,8.6,15.64,15.64,0,0,0,1,3.44Z"/></g></g></g></svg>